<svg id="visual" viewBox="0 0 960 540" width="960" height="540" xmlns="http://www.w3.org/2000/svg" xmlns:xlink="http://www.w3.org/1999/xlink" version="1.1"><path d="M0 396L10.7 372.8C21.3 349.7 42.7 303.3 64 296.8C85.3 290.3 106.7 323.7 128 319.7C149.3 315.7 170.7 274.3 192 267.5C213.3 260.7 234.7 288.3 256 320C277.3 351.7 298.7 387.3 320 414.7C341.3 442 362.7 461 384 460.7C405.3 460.3 426.7 440.7 448 444.2C469.3 447.7 490.7 474.3 512 477.7C533.3 481 554.7 461 576 432.8C597.3 404.7 618.7 368.3 640 380.3C661.3 392.3 682.7 452.7 704 460.7C725.3 468.7 746.7 424.3 768 387.3C789.3 350.3 810.7 320.7 832 296.2C853.3 271.7 874.7 252.3 896 291.5C917.3 330.7 938.7 428.3 949.3 477.2L960 526L960 541L949.3 541C938.7 541 917.3 541 896 541C874.7 541 853.3 541 832 541C810.7 541 789.3 541 768 541C746.7 541 725.3 541 704 541C682.7 541 661.3 541 640 541C618.7 541 597.3 541 576 541C554.7 541 533.3 541 512 541C490.7 541 469.3 541 448 541C426.7 541 405.3 541 384 541C362.7 541 341.3 541 320 541C298.7 541 277.3 541 256 541C234.7 541 213.3 541 192 541C170.7 541 149.3 541 128 541C106.7 541 85.3 541 64 541C42.7 541 21.3 541 10.7 541L0 541Z" fill="#f5bf09"></path><path d="M0 329L10.7 357.2C21.3 385.3 42.7 441.7 64 429.3C85.3 417 106.7 336 128 298.8C149.3 261.7 170.7 268.3 192 275.7C213.3 283 234.7 291 256 333.3C277.3 375.7 298.7 452.3 320 457.5C341.3 462.7 362.7 396.3 384 384.2C405.3 372 426.7 414 448 417.7C469.3 421.3 490.7 386.7 512 395.3C533.3 404 554.7 456 576 456.5C597.3 457 618.7 406 640 405.2C661.3 404.3 682.7 453.7 704 448.3C725.3 443 746.7 383 768 354.2C789.3 325.3 810.7 327.7 832 351.7C853.3 375.7 874.7 421.3 896 417.5C917.3 413.7 938.7 360.3 949.3 333.7L960 307L960 541L949.3 541C938.7 541 917.3 541 896 541C874.7 541 853.3 541 832 541C810.7 541 789.3 541 768 541C746.7 541 725.3 541 704 541C682.7 541 661.3 541 640 541C618.7 541 597.3 541 576 541C554.7 541 533.3 541 512 541C490.7 541 469.3 541 448 541C426.7 541 405.3 541 384 541C362.7 541 341.3 541 320 541C298.7 541 277.3 541 256 541C234.7 541 213.3 541 192 541C170.7 541 149.3 541 128 541C106.7 541 85.3 541 64 541C42.7 541 21.3 541 10.7 541L0 541Z" fill="#fbaf11"></path><path d="M0 486L10.7 464.2C21.3 442.3 42.7 398.7 64 388.7C85.3 378.7 106.7 402.3 128 388.5C149.3 374.7 170.7 323.3 192 327C213.3 330.7 234.7 389.3 256 406.8C277.3 424.3 298.7 400.7 320 377.7C341.3 354.7 362.7 332.3 384 339.8C405.3 347.3 426.7 384.7 448 391C469.3 397.3 490.7 372.7 512 375.7C533.3 378.7 554.7 409.3 576 398.8C597.3 388.3 618.7 336.7 640 345.7C661.3 354.7 682.7 424.3 704 441.5C725.3 458.7 746.7 423.3 768 411.8C789.3 400.3 810.7 412.7 832 418.3C853.3 424 874.7 423 896 410.3C917.3 397.7 938.7 373.3 949.3 361.2L960 349L960 541L949.3 541C938.7 541 917.3 541 896 541C874.7 541 853.3 541 832 541C810.7 541 789.3 541 768 541C746.7 541 725.3 541 704 541C682.7 541 661.3 541 640 541C618.7 541 597.3 541 576 541C554.7 541 533.3 541 512 541C490.7 541 469.3 541 448 541C426.7 541 405.3 541 384 541C362.7 541 341.3 541 320 541C298.7 541 277.3 541 256 541C234.7 541 213.3 541 192 541C170.7 541 149.3 541 128 541C106.7 541 85.3 541 64 541C42.7 541 21.3 541 10.7 541L0 541Z" fill="#ff9f1d"></path><path d="M0 372L10.7 388.8C21.3 405.7 42.7 439.3 64 442.5C85.3 445.7 106.7 418.3 128 426.3C149.3 434.3 170.7 477.7 192 490.5C213.3 503.3 234.7 485.7 256 462.3C277.3 439 298.7 410 320 400.7C341.3 391.3 362.7 401.7 384 426C405.3 450.3 426.7 488.7 448 468.3C469.3 448 490.7 369 512 332.3C533.3 295.7 554.7 301.3 576 308.5C597.3 315.7 618.7 324.3 640 348C661.3 371.7 682.7 410.3 704 420.5C725.3 430.7 746.7 412.3 768 413.5C789.3 414.7 810.7 435.3 832 449.3C853.3 463.3 874.7 470.7 896 448.3C917.3 426 938.7 374 949.3 348L960 322L960 541L949.3 541C938.7 541 917.3 541 896 541C874.7 541 853.3 541 832 541C810.7 541 789.3 541 768 541C746.7 541 725.3 541 704 541C682.7 541 661.3 541 640 541C618.7 541 597.3 541 576 541C554.7 541 533.3 541 512 541C490.7 541 469.3 541 448 541C426.7 541 405.3 541 384 541C362.7 541 341.3 541 320 541C298.7 541 277.3 541 256 541C234.7 541 213.3 541 192 541C170.7 541 149.3 541 128 541C106.7 541 85.3 541 64 541C42.7 541 21.3 541 10.7 541L0 541Z" fill="#ff8f28"></path><path d="M0 380L10.7 402C21.3 424 42.7 468 64 493.2C85.3 518.3 106.7 524.7 128 524.7C149.3 524.7 170.7 518.3 192 495.5C213.3 472.7 234.7 433.3 256 422C277.3 410.7 298.7 427.3 320 415C341.3 402.7 362.7 361.3 384 348.5C405.3 335.7 426.7 351.3 448 364C469.3 376.7 490.7 386.3 512 390.3C533.3 394.3 554.7 392.7 576 384C597.3 375.3 618.7 359.7 640 354C661.3 348.3 682.7 352.7 704 353.5C725.3 354.3 746.7 351.7 768 370.3C789.3 389 810.7 429 832 426.5C853.3 424 874.7 379 896 375.3C917.3 371.7 938.7 409.3 949.3 428.2L960 447L960 541L949.3 541C938.7 541 917.3 541 896 541C874.7 541 853.3 541 832 541C810.7 541 789.3 541 768 541C746.7 541 725.3 541 704 541C682.7 541 661.3 541 640 541C618.7 541 597.3 541 576 541C554.7 541 533.3 541 512 541C490.7 541 469.3 541 448 541C426.7 541 405.3 541 384 541C362.7 541 341.3 541 320 541C298.7 541 277.3 541 256 541C234.7 541 213.3 541 192 541C170.7 541 149.3 541 128 541C106.7 541 85.3 541 64 541C42.7 541 21.3 541 10.7 541L0 541Z" fill="#ff7f33"></path><path d="M0 353L10.7 350.8C21.3 348.7 42.7 344.3 64 353.3C85.3 362.3 106.7 384.7 128 416.3C149.3 448 170.7 489 192 489.2C213.3 489.3 234.7 448.7 256 438.2C277.3 427.7 298.7 447.3 320 444C341.3 440.7 362.7 414.3 384 409.8C405.3 405.3 426.7 422.7 448 433C469.3 443.3 490.7 446.7 512 438.2C533.3 429.7 554.7 409.3 576 404C597.3 398.7 618.7 408.3 640 425.7C661.3 443 682.7 468 704 483.3C725.3 498.7 746.7 504.3 768 492.2C789.3 480 810.7 450 832 435.2C853.3 420.3 874.7 420.7 896 407.3C917.3 394 938.7 367 949.3 353.5L960 340L960 541L949.3 541C938.7 541 917.3 541 896 541C874.7 541 853.3 541 832 541C810.7 541 789.3 541 768 541C746.7 541 725.3 541 704 541C682.7 541 661.3 541 640 541C618.7 541 597.3 541 576 541C554.7 541 533.3 541 512 541C490.7 541 469.3 541 448 541C426.7 541 405.3 541 384 541C362.7 541 341.3 541 320 541C298.7 541 277.3 541 256 541C234.7 541 213.3 541 192 541C170.7 541 149.3 541 128 541C106.7 541 85.3 541 64 541C42.7 541 21.3 541 10.7 541L0 541Z" fill="#ff6f3e"></path><path d="M0 496L10.7 479C21.3 462 42.7 428 64 429C85.3 430 106.7 466 128 461.8C149.3 457.7 170.7 413.3 192 413C213.3 412.7 234.7 456.3 256 464.7C277.3 473 298.7 446 320 432.8C341.3 419.7 362.7 420.3 384 415C405.3 409.7 426.7 398.3 448 412.2C469.3 426 490.7 465 512 476.8C533.3 488.7 554.7 473.3 576 465.2C597.3 457 618.7 456 640 466.5C661.3 477 682.7 499 704 508.5C725.3 518 746.7 515 768 508.5C789.3 502 810.7 492 832 479.5C853.3 467 874.7 452 896 461.2C917.3 470.3 938.7 503.7 949.3 520.3L960 537L960 541L949.3 541C938.7 541 917.3 541 896 541C874.7 541 853.3 541 832 541C810.7 541 789.3 541 768 541C746.7 541 725.3 541 704 541C682.7 541 661.3 541 640 541C618.7 541 597.3 541 576 541C554.7 541 533.3 541 512 541C490.7 541 469.3 541 448 541C426.7 541 405.3 541 384 541C362.7 541 341.3 541 320 541C298.7 541 277.3 541 256 541C234.7 541 213.3 541 192 541C170.7 541 149.3 541 128 541C106.7 541 85.3 541 64 541C42.7 541 21.3 541 10.7 541L0 541Z" fill="#fe5f48"></path><path d="M0 518L10.7 502C21.3 486 42.7 454 64 452.8C85.3 451.7 106.7 481.3 128 482.7C149.3 484 170.7 457 192 455.2C213.3 453.3 234.7 476.7 256 477.8C277.3 479 298.7 458 320 443.7C341.3 429.3 362.7 421.7 384 421.7C405.3 421.7 426.7 429.3 448 428.8C469.3 428.3 490.7 419.7 512 418.3C533.3 417 554.7 423 576 430.2C597.3 437.3 618.7 445.7 640 455.8C661.3 466 682.7 478 704 479C725.3 480 746.7 470 768 462.7C789.3 455.3 810.7 450.7 832 445.8C853.3 441 874.7 436 896 439.5C917.3 443 938.7 455 949.3 461L960 467L960 541L949.3 541C938.7 541 917.3 541 896 541C874.7 541 853.3 541 832 541C810.7 541 789.3 541 768 541C746.7 541 725.3 541 704 541C682.7 541 661.3 541 640 541C618.7 541 597.3 541 576 541C554.7 541 533.3 541 512 541C490.7 541 469.3 541 448 541C426.7 541 405.3 541 384 541C362.7 541 341.3 541 320 541C298.7 541 277.3 541 256 541C234.7 541 213.3 541 192 541C170.7 541 149.3 541 128 541C106.7 541 85.3 541 64 541C42.7 541 21.3 541 10.7 541L0 541Z" fill="#fc4f53"></path><path d="M0 430L10.7 435.3C21.3 440.7 42.7 451.3 64 451.3C85.3 451.3 106.7 440.7 128 444.3C149.3 448 170.7 466 192 478.5C213.3 491 234.7 498 256 486.5C277.3 475 298.7 445 320 446.7C341.3 448.3 362.7 481.7 384 484.8C405.3 488 426.7 461 448 450.5C469.3 440 490.7 446 512 459.7C533.3 473.3 554.7 494.7 576 507.2C597.3 519.7 618.7 523.3 640 508.3C661.3 493.3 682.7 459.7 704 459.7C725.3 459.7 746.7 493.3 768 500.2C789.3 507 810.7 487 832 482.8C853.3 478.7 874.7 490.3 896 495.2C917.3 500 938.7 498 949.3 497L960 496L960 541L949.3 541C938.7 541 917.3 541 896 541C874.7 541 853.3 541 832 541C810.7 541 789.3 541 768 541C746.7 541 725.3 541 704 541C682.7 541 661.3 541 640 541C618.7 541 597.3 541 576 541C554.7 541 533.3 541 512 541C490.7 541 469.3 541 448 541C426.7 541 405.3 541 384 541C362.7 541 341.3 541 320 541C298.7 541 277.3 541 256 541C234.7 541 213.3 541 192 541C170.7 541 149.3 541 128 541C106.7 541 85.3 541 64 541C42.7 541 21.3 541 10.7 541L0 541Z" fill="#f73f5e"></path><path d="M0 511L10.7 499.5C21.3 488 42.7 465 64 457.3C85.3 449.7 106.7 457.3 128 460C149.3 462.7 170.7 460.3 192 471.5C213.3 482.7 234.7 507.3 256 517.3C277.3 527.3 298.7 522.7 320 520.8C341.3 519 362.7 520 384 512.8C405.3 505.7 426.7 490.3 448 486.7C469.3 483 490.7 491 512 496C533.3 501 554.7 503 576 497.5C597.3 492 618.7 479 640 468.3C661.3 457.7 682.7 449.3 704 455.7C725.3 462 746.7 483 768 485.8C789.3 488.7 810.7 473.3 832 475.7C853.3 478 874.7 498 896 500C917.3 502 938.7 486 949.3 478L960 470L960 541L949.3 541C938.7 541 917.3 541 896 541C874.7 541 853.3 541 832 541C810.7 541 789.3 541 768 541C746.7 541 725.3 541 704 541C682.7 541 661.3 541 640 541C618.7 541 597.3 541 576 541C554.7 541 533.3 541 512 541C490.7 541 469.3 541 448 541C426.7 541 405.3 541 384 541C362.7 541 341.3 541 320 541C298.7 541 277.3 541 256 541C234.7 541 213.3 541 192 541C170.7 541 149.3 541 128 541C106.7 541 85.3 541 64 541C42.7 541 21.3 541 10.7 541L0 541Z" fill="#f03069"></path><path d="M0 528L10.7 522.3C21.3 516.7 42.7 505.3 64 502.2C85.3 499 106.7 504 128 501.8C149.3 499.7 170.7 490.3 192 486.7C213.3 483 234.7 485 256 491.7C277.3 498.3 298.7 509.7 320 511.2C341.3 512.7 362.7 504.3 384 503C405.3 501.7 426.7 507.3 448 512.8C469.3 518.3 490.7 523.7 512 515.7C533.3 507.7 554.7 486.3 576 477C597.3 467.7 618.7 470.3 640 475.2C661.3 480 682.7 487 704 497.5C725.3 508 746.7 522 768 518C789.3 514 810.7 492 832 489.7C853.3 487.3 874.7 504.7 896 512C917.3 519.3 938.7 516.7 949.3 515.3L960 514L960 541L949.3 541C938.7 541 917.3 541 896 541C874.7 541 853.3 541 832 541C810.7 541 789.3 541 768 541C746.7 541 725.3 541 704 541C682.7 541 661.3 541 640 541C618.7 541 597.3 541 576 541C554.7 541 533.3 541 512 541C490.7 541 469.3 541 448 541C426.7 541 405.3 541 384 541C362.7 541 341.3 541 320 541C298.7 541 277.3 541 256 541C234.7 541 213.3 541 192 541C170.7 541 149.3 541 128 541C106.7 541 85.3 541 64 541C42.7 541 21.3 541 10.7 541L0 541Z" fill="#e72274"></path><path d="M0 525L10.7 524.2C21.3 523.3 42.7 521.7 64 518.7C85.3 515.7 106.7 511.3 128 511.5C149.3 511.7 170.7 516.3 192 520.8C213.3 525.3 234.7 529.7 256 530.5C277.3 531.3 298.7 528.7 320 528.8C341.3 529 362.7 532 384 528C405.3 524 426.7 513 448 509.8C469.3 506.7 490.7 511.3 512 513.8C533.3 516.3 554.7 516.7 576 513.3C597.3 510 618.7 503 640 506C661.3 509 682.7 522 704 524.3C725.3 526.7 746.7 518.3 768 518.3C789.3 518.3 810.7 526.7 832 525.8C853.3 525 874.7 515 896 515C917.3 515 938.7 525 949.3 530L960 535L960 541L949.3 541C938.7 541 917.3 541 896 541C874.7 541 853.3 541 832 541C810.7 541 789.3 541 768 541C746.7 541 725.3 541 704 541C682.7 541 661.3 541 640 541C618.7 541 597.3 541 576 541C554.7 541 533.3 541 512 541C490.7 541 469.3 541 448 541C426.7 541 405.3 541 384 541C362.7 541 341.3 541 320 541C298.7 541 277.3 541 256 541C234.7 541 213.3 541 192 541C170.7 541 149.3 541 128 541C106.7 541 85.3 541 64 541C42.7 541 21.3 541 10.7 541L0 541Z" fill="#db167f"></path></svg>