<svg id="visual" viewBox="0 0 3840 2160" width="3840" height="2160" xmlns="http://www.w3.org/2000/svg" xmlns:xlink="http://www.w3.org/1999/xlink" version="1.1"><path d="M0 1294L71.2 1345.7C142.3 1397.3 284.7 1500.7 426.8 1508.3C569 1516 711 1428 853.2 1390.7C995.3 1353.3 1137.7 1366.7 1280 1374.2C1422.3 1381.7 1564.7 1383.3 1706.8 1424.5C1849 1465.7 1991 1546.3 2133.2 1532.3C2275.3 1518.3 2417.7 1409.7 2560 1420.5C2702.3 1431.3 2844.7 1561.7 2986.8 1603.2C3129 1644.7 3271 1597.3 3413.2 1570.8C3555.3 1544.3 3697.7 1538.7 3768.8 1535.8L3840 1533L3840 2161L3768.8 2161C3697.7 2161 3555.3 2161 3413.2 2161C3271 2161 3129 2161 2986.8 2161C2844.7 2161 2702.3 2161 2560 2161C2417.7 2161 2275.3 2161 2133.2 2161C1991 2161 1849 2161 1706.8 2161C1564.7 2161 1422.3 2161 1280 2161C1137.7 2161 995.3 2161 853.2 2161C711 2161 569 2161 426.8 2161C284.7 2161 142.3 2161 71.2 2161L0 2161Z" fill="#f5bf09"></path><path d="M0 1631L71.2 1645.3C142.3 1659.7 284.7 1688.3 426.8 1705.5C569 1722.7 711 1728.3 853.2 1688.7C995.3 1649 1137.7 1564 1280 1530.2C1422.3 1496.3 1564.7 1513.7 1706.8 1553.2C1849 1592.7 1991 1654.3 2133.2 1655.8C2275.3 1657.3 2417.7 1598.7 2560 1550.8C2702.3 1503 2844.7 1466 2986.8 1477C3129 1488 3271 1547 3413.2 1574.8C3555.3 1602.7 3697.7 1599.3 3768.8 1597.7L3840 1596L3840 2161L3768.8 2161C3697.7 2161 3555.3 2161 3413.2 2161C3271 2161 3129 2161 2986.8 2161C2844.7 2161 2702.3 2161 2560 2161C2417.7 2161 2275.3 2161 2133.2 2161C1991 2161 1849 2161 1706.8 2161C1564.7 2161 1422.3 2161 1280 2161C1137.7 2161 995.3 2161 853.2 2161C711 2161 569 2161 426.8 2161C284.7 2161 142.3 2161 71.2 2161L0 2161Z" fill="#fd9c1d"></path><path d="M0 1829L71.2 1825.8C142.3 1822.7 284.7 1816.3 426.8 1789C569 1761.7 711 1713.3 853.2 1716.2C995.3 1719 1137.7 1773 1280 1801.8C1422.3 1830.7 1564.7 1834.3 1706.8 1814.8C1849 1795.3 1991 1752.7 2133.2 1721.5C2275.3 1690.3 2417.7 1670.7 2560 1672.5C2702.3 1674.3 2844.7 1697.7 2986.8 1702.5C3129 1707.3 3271 1693.7 3413.2 1700.2C3555.3 1706.7 3697.7 1733.3 3768.8 1746.7L3840 1760L3840 2161L3768.8 2161C3697.7 2161 3555.3 2161 3413.2 2161C3271 2161 3129 2161 2986.8 2161C2844.7 2161 2702.3 2161 2560 2161C2417.7 2161 2275.3 2161 2133.2 2161C1991 2161 1849 2161 1706.8 2161C1564.7 2161 1422.3 2161 1280 2161C1137.7 2161 995.3 2161 853.2 2161C711 2161 569 2161 426.8 2161C284.7 2161 142.3 2161 71.2 2161L0 2161Z" fill="#fd7a34"></path><path d="M0 1799L71.2 1801.7C142.3 1804.3 284.7 1809.7 426.8 1791.7C569 1773.7 711 1732.3 853.2 1728.5C995.3 1724.7 1137.7 1758.3 1280 1798C1422.3 1837.7 1564.7 1883.3 1706.8 1871.7C1849 1860 1991 1791 2133.2 1765.7C2275.3 1740.3 2417.7 1758.7 2560 1773.3C2702.3 1788 2844.7 1799 2986.8 1800.2C3129 1801.3 3271 1792.7 3413.2 1772.2C3555.3 1751.7 3697.7 1719.3 3768.8 1703.2L3840 1687L3840 2161L3768.8 2161C3697.7 2161 3555.3 2161 3413.2 2161C3271 2161 3129 2161 2986.8 2161C2844.7 2161 2702.3 2161 2560 2161C2417.7 2161 2275.3 2161 2133.2 2161C1991 2161 1849 2161 1706.8 2161C1564.7 2161 1422.3 2161 1280 2161C1137.7 2161 995.3 2161 853.2 2161C711 2161 569 2161 426.8 2161C284.7 2161 142.3 2161 71.2 2161L0 2161Z" fill="#f35948"></path><path d="M0 1999L71.2 1986.3C142.3 1973.7 284.7 1948.3 426.8 1925.5C569 1902.7 711 1882.3 853.2 1870.3C995.3 1858.3 1137.7 1854.7 1280 1854.2C1422.3 1853.7 1564.7 1856.3 1706.8 1874C1849 1891.7 1991 1924.3 2133.2 1916.7C2275.3 1909 2417.7 1861 2560 1854.3C2702.3 1847.7 2844.7 1882.3 2986.8 1899.5C3129 1916.7 3271 1916.3 3413.2 1922.7C3555.3 1929 3697.7 1942 3768.8 1948.5L3840 1955L3840 2161L3768.8 2161C3697.7 2161 3555.3 2161 3413.2 2161C3271 2161 3129 2161 2986.8 2161C2844.7 2161 2702.3 2161 2560 2161C2417.7 2161 2275.3 2161 2133.2 2161C1991 2161 1849 2161 1706.8 2161C1564.7 2161 1422.3 2161 1280 2161C1137.7 2161 995.3 2161 853.2 2161C711 2161 569 2161 426.8 2161C284.7 2161 142.3 2161 71.2 2161L0 2161Z" fill="#e13a59"></path><path d="M0 1951L71.2 1952C142.3 1953 284.7 1955 426.8 1967.3C569 1979.7 711 2002.3 853.2 2017.8C995.3 2033.3 1137.7 2041.7 1280 2032.7C1422.3 2023.7 1564.7 1997.3 1706.8 2002.3C1849 2007.3 1991 2043.7 2133.2 2055C2275.3 2066.3 2417.7 2052.7 2560 2031.5C2702.3 2010.3 2844.7 1981.7 2986.8 1963.5C3129 1945.3 3271 1937.7 3413.2 1949.2C3555.3 1960.7 3697.7 1991.3 3768.8 2006.7L3840 2022L3840 2161L3768.8 2161C3697.7 2161 3555.3 2161 3413.2 2161C3271 2161 3129 2161 2986.8 2161C2844.7 2161 2702.3 2161 2560 2161C2417.7 2161 2275.3 2161 2133.2 2161C1991 2161 1849 2161 1706.8 2161C1564.7 2161 1422.3 2161 1280 2161C1137.7 2161 995.3 2161 853.2 2161C711 2161 569 2161 426.8 2161C284.7 2161 142.3 2161 71.2 2161L0 2161Z" fill="#c62368"></path></svg>