<svg width="2560" height="431" viewBox="0 0 2560 431" fill="none" xmlns="http://www.w3.org/2000/svg">
<g clip-path="url(#clip0_5_18)">
<path d="M0 400.172L14.2 395.383C28.4667 390.594 56.8667 381.016 85.3333 381.764C113.8 382.513 142.2 393.587 170.667 399.483C199.133 405.35 227.533 406.068 256 401.818C284.467 397.568 312.867 388.409 341.333 385.595C369.8 382.812 398.2 386.404 426.667 389.905C455.133 393.377 483.533 396.789 512 397.538C540.467 398.286 568.867 396.37 597.333 392.749C625.8 389.097 654.2 383.71 682.667 379.43C711.133 375.12 739.533 371.947 768 370.989C796.467 370.032 824.867 371.349 853.333 373.683C881.8 376.018 910.2 379.43 938.667 379.879C967.133 380.328 995.533 377.813 1024 381.226C1052.47 384.608 1080.87 393.886 1109.33 399.334C1137.8 404.751 1166.2 406.367 1194.67 401.369C1223.13 396.37 1251.53 384.817 1280 380.417C1308.47 376.018 1336.87 378.831 1365.33 377.634C1393.8 376.437 1422.2 371.229 1450.67 368.834C1479.13 366.44 1507.53 366.859 1536 368.236C1564.47 369.642 1592.87 372.037 1621.33 377.484C1649.8 382.902 1678.2 391.402 1706.67 396.52C1735.13 401.668 1763.53 403.464 1792 403.105C1820.47 402.776 1848.87 400.261 1877.33 397.119C1905.8 393.976 1934.2 390.205 1962.67 386.553C1991.13 382.902 2019.53 379.43 2048 382.064C2076.47 384.698 2104.87 393.497 2133.33 397.837C2161.8 402.177 2190.2 402.057 2218.67 396.73C2247.13 391.402 2275.53 380.807 2304 376.886C2332.47 372.935 2360.87 375.629 2389.33 379.011C2417.8 382.423 2446.2 386.493 2474.67 384.548C2503.13 382.602 2531.53 374.641 2545.8 370.63L2560 366.649" stroke="#DB167F" stroke-width="6" stroke-linecap="round"/>
</g>
<defs>
<clipPath id="clip0_5_18">
<rect width="2560" height="431" fill="white"/>
</clipPath>
</defs>
</svg>
