<svg id="visual" viewBox="0 0 3840 2160" width="3840" height="2160" xmlns="http://www.w3.org/2000/svg" xmlns:xlink="http://www.w3.org/1999/xlink" version="1.1"><path d="M0 1822L45.7 1802.8C91.3 1783.7 182.7 1745.3 274.2 1724.8C365.7 1704.3 457.3 1701.7 548.8 1656.5C640.3 1611.3 731.7 1523.7 823 1552.7C914.3 1581.7 1005.7 1727.3 1097 1795.2C1188.3 1863 1279.7 1853 1371.2 1768.5C1462.7 1684 1554.3 1525 1645.8 1524.3C1737.3 1523.7 1828.7 1681.3 1920 1754.2C2011.3 1827 2102.7 1815 2194.2 1729.2C2285.7 1643.3 2377.3 1483.7 2468.8 1453C2560.3 1422.3 2651.7 1520.7 2743 1572.8C2834.3 1625 2925.7 1631 3017 1661.7C3108.3 1692.3 3199.7 1747.7 3291.2 1694C3382.7 1640.3 3474.3 1477.7 3565.8 1490C3657.3 1502.3 3748.7 1689.7 3794.3 1783.3L3840 1877" fill="none" stroke="#ffcc00" stroke-width="40" stroke-linecap="round" stroke-linejoin="miter"></path></svg>