<svg id="visual" viewBox="0 0 3840 1440" width="3840" height="1440" xmlns="http://www.w3.org/2000/svg" xmlns:xlink="http://www.w3.org/1999/xlink" version="1.1"><path d="M0 1260L32 1258.3C64 1256.7 128 1253.3 192 1243.3C256 1233.3 320 1216.7 384 1220.3C448 1224 512 1248 576 1257.8C640 1267.7 704 1263.3 768 1263C832 1262.7 896 1266.3 960 1249.8C1024 1233.3 1088 1196.7 1152 1198.8C1216 1201 1280 1242 1344 1262.8C1408 1283.7 1472 1284.3 1536 1264.3C1600 1244.3 1664 1203.7 1728 1194.7C1792 1185.7 1856 1208.3 1920 1217.2C1984 1226 2048 1221 2112 1226.5C2176 1232 2240 1248 2304 1249.3C2368 1250.7 2432 1237.3 2496 1235.8C2560 1234.3 2624 1244.7 2688 1255.2C2752 1265.7 2816 1276.3 2880 1281.3C2944 1286.3 3008 1285.7 3072 1266.8C3136 1248 3200 1211 3264 1197.7C3328 1184.3 3392 1194.7 3456 1192.2C3520 1189.7 3584 1174.3 3648 1178C3712 1181.7 3776 1204.3 3808 1215.7L3840 1227" fill="none" stroke="#f5bf09" stroke-width="3" stroke-linecap="round" stroke-linejoin="miter"></path></svg>