<svg id="visual" viewBox="0 0 3840 1440" width="3840" height="1440" xmlns="http://www.w3.org/2000/svg" xmlns:xlink="http://www.w3.org/1999/xlink" version="1.1"><path d="M0 1337L21.3 1321C42.7 1305 85.3 1273 128 1275.5C170.7 1278 213.3 1315 256 1334.7C298.7 1354.3 341.3 1356.7 384 1342.5C426.7 1328.3 469.3 1297.7 512 1288.3C554.7 1279 597.3 1291 640 1302.7C682.7 1314.3 725.3 1325.7 768 1328.2C810.7 1330.7 853.3 1324.3 896 1312.2C938.7 1300 981.3 1282 1024 1267.7C1066.7 1253.3 1109.3 1242.7 1152 1239.5C1194.7 1236.3 1237.3 1240.7 1280 1248.5C1322.7 1256.3 1365.3 1267.7 1408 1269.2C1450.7 1270.7 1493.3 1262.3 1536 1273.7C1578.7 1285 1621.3 1316 1664 1334.2C1706.7 1352.3 1749.3 1357.7 1792 1341C1834.7 1324.3 1877.3 1285.7 1920 1271C1962.7 1256.3 2005.3 1265.7 2048 1261.7C2090.7 1257.7 2133.3 1240.3 2176 1232.3C2218.7 1224.3 2261.3 1225.7 2304 1230.3C2346.7 1235 2389.3 1243 2432 1261.2C2474.7 1279.3 2517.3 1307.7 2560 1324.8C2602.7 1342 2645.3 1348 2688 1346.8C2730.7 1345.7 2773.3 1337.3 2816 1326.8C2858.7 1316.3 2901.3 1303.7 2944 1291.5C2986.7 1279.3 3029.3 1267.7 3072 1276.5C3114.7 1285.3 3157.3 1314.7 3200 1329.2C3242.7 1343.7 3285.3 1343.3 3328 1325.5C3370.7 1307.7 3413.3 1272.3 3456 1259.2C3498.7 1246 3541.3 1255 3584 1266.3C3626.7 1277.7 3669.3 1291.3 3712 1284.8C3754.7 1278.3 3797.3 1251.7 3818.7 1238.3L3840 1225" fill="none" stroke="#db167f" stroke-width="6" stroke-linecap="round" stroke-linejoin="miter"></path></svg>