<svg id="visual" viewBox="0 0 3840 1440" width="3840" height="1440" xmlns="http://www.w3.org/2000/svg" xmlns:xlink="http://www.w3.org/1999/xlink" version="1.1"><path d="M0 1359L53.3 1364C106.7 1369 213.3 1379 320 1361C426.7 1343 533.3 1297 640 1293.7C746.7 1290.3 853.3 1329.7 960 1329.5C1066.7 1329.3 1173.3 1289.7 1280 1282C1386.7 1274.3 1493.3 1298.7 1600 1308.2C1706.7 1317.7 1813.3 1312.3 1920 1303C2026.7 1293.7 2133.3 1280.3 2240 1281.8C2346.7 1283.3 2453.3 1299.7 2560 1313.2C2666.7 1326.7 2773.3 1337.3 2880 1336.7C2986.7 1336 3093.3 1324 3200 1318.2C3306.7 1312.3 3413.3 1312.7 3520 1293.2C3626.7 1273.7 3733.3 1234.3 3786.7 1214.7L3840 1195" fill="none" stroke="#c46210" stroke-width="5" stroke-linecap="round" stroke-linejoin="miter"></path></svg>