<svg id="visual" viewBox="0 0 1440 500" width="1440" height="500" xmlns="http://www.w3.org/2000/svg" xmlns:xlink="http://www.w3.org/1999/xlink" version="1.1"><path d="M0 197L16 213.5C32 230 64 263 96 242.7C128 222.3 160 148.7 192 135.8C224 123 256 171 288 189C320 207 352 195 384 182.5C416 170 448 157 480 129C512 101 544 58 576 38.5C608 19 640 23 672 50.8C704 78.7 736 130.3 768 170.2C800 210 832 238 864 242.7C896 247.3 928 228.7 960 192.3C992 156 1024 102 1056 67.7C1088 33.3 1120 18.7 1152 29C1184 39.3 1216 74.7 1248 112.8C1280 151 1312 192 1344 206C1376 220 1408 207 1424 200.5L1440 194L1440 0L1424 0C1408 0 1376 0 1344 0C1312 0 1280 0 1248 0C1216 0 1184 0 1152 0C1120 0 1088 0 1056 0C1024 0 992 0 960 0C928 0 896 0 864 0C832 0 800 0 768 0C736 0 704 0 672 0C640 0 608 0 576 0C544 0 512 0 480 0C448 0 416 0 384 0C352 0 320 0 288 0C256 0 224 0 192 0C160 0 128 0 96 0C64 0 32 0 16 0L0 0Z" fill="#1b202a"></path><path d="M0 35L16 44.3C32 53.7 64 72.3 96 73.8C128 75.3 160 59.7 192 73.3C224 87 256 130 288 162C320 194 352 215 384 230.5C416 246 448 256 480 260.5C512 265 544 264 576 229C608 194 640 125 672 102.5C704 80 736 104 768 113.2C800 122.3 832 116.7 864 125.8C896 135 928 159 960 144.7C992 130.3 1024 77.7 1056 48.3C1088 19 1120 13 1152 53.2C1184 93.3 1216 179.7 1248 219.7C1280 259.7 1312 253.3 1344 216.7C1376 180 1408 113 1424 79.5L1440 46L1440 0L1424 0C1408 0 1376 0 1344 0C1312 0 1280 0 1248 0C1216 0 1184 0 1152 0C1120 0 1088 0 1056 0C1024 0 992 0 960 0C928 0 896 0 864 0C832 0 800 0 768 0C736 0 704 0 672 0C640 0 608 0 576 0C544 0 512 0 480 0C448 0 416 0 384 0C352 0 320 0 288 0C256 0 224 0 192 0C160 0 128 0 96 0C64 0 32 0 16 0L0 0Z" fill="#202639"></path><path d="M0 198L16 173.2C32 148.3 64 98.7 96 78.7C128 58.7 160 68.3 192 82.8C224 97.3 256 116.7 288 127.5C320 138.3 352 140.7 384 141C416 141.3 448 139.7 480 132.3C512 125 544 112 576 112C608 112 640 125 672 110.5C704 96 736 54 768 66.5C800 79 832 146 864 152.3C896 158.7 928 104.3 960 94.8C992 85.3 1024 120.7 1056 141.5C1088 162.3 1120 168.7 1152 177.8C1184 187 1216 199 1248 177.2C1280 155.3 1312 99.7 1344 82C1376 64.3 1408 84.7 1424 94.8L1440 105L1440 0L1424 0C1408 0 1376 0 1344 0C1312 0 1280 0 1248 0C1216 0 1184 0 1152 0C1120 0 1088 0 1056 0C1024 0 992 0 960 0C928 0 896 0 864 0C832 0 800 0 768 0C736 0 704 0 672 0C640 0 608 0 576 0C544 0 512 0 480 0C448 0 416 0 384 0C352 0 320 0 288 0C256 0 224 0 192 0C160 0 128 0 96 0C64 0 32 0 16 0L0 0Z" fill="#272c49"></path><path d="M0 104L16 112.3C32 120.7 64 137.3 96 147.2C128 157 160 160 192 146.5C224 133 256 103 288 90.8C320 78.7 352 84.3 384 86.2C416 88 448 86 480 98.8C512 111.7 544 139.3 576 161.3C608 183.3 640 199.7 672 187.2C704 174.7 736 133.3 768 122.8C800 112.3 832 132.7 864 143.2C896 153.7 928 154.3 960 163C992 171.7 1024 188.3 1056 200.5C1088 212.7 1120 220.3 1152 203C1184 185.7 1216 143.3 1248 110.7C1280 78 1312 55 1344 44.7C1376 34.3 1408 36.7 1424 37.8L1440 39L1440 0L1424 0C1408 0 1376 0 1344 0C1312 0 1280 0 1248 0C1216 0 1184 0 1152 0C1120 0 1088 0 1056 0C1024 0 992 0 960 0C928 0 896 0 864 0C832 0 800 0 768 0C736 0 704 0 672 0C640 0 608 0 576 0C544 0 512 0 480 0C448 0 416 0 384 0C352 0 320 0 288 0C256 0 224 0 192 0C160 0 128 0 96 0C64 0 32 0 16 0L0 0Z" fill="#333157"></path><path d="M0 82L16 72.5C32 63 64 44 96 51.8C128 59.7 160 94.3 192 123.2C224 152 256 175 288 169C320 163 352 128 384 114.2C416 100.3 448 107.7 480 116C512 124.3 544 133.7 576 142.3C608 151 640 159 672 167.2C704 175.3 736 183.7 768 184.8C800 186 832 180 864 170.2C896 160.3 928 146.7 960 120C992 93.3 1024 53.7 1056 49.3C1088 45 1120 76 1152 83C1184 90 1216 73 1248 68.8C1280 64.7 1312 73.3 1344 78C1376 82.7 1408 83.3 1424 83.7L1440 84L1440 0L1424 0C1408 0 1376 0 1344 0C1312 0 1280 0 1248 0C1216 0 1184 0 1152 0C1120 0 1088 0 1056 0C1024 0 992 0 960 0C928 0 896 0 864 0C832 0 800 0 768 0C736 0 704 0 672 0C640 0 608 0 576 0C544 0 512 0 480 0C448 0 416 0 384 0C352 0 320 0 288 0C256 0 224 0 192 0C160 0 128 0 96 0C64 0 32 0 16 0L0 0Z" fill="#423464"></path><path d="M0 140L16 128.2C32 116.3 64 92.7 96 80C128 67.3 160 65.7 192 83.8C224 102 256 140 288 154.2C320 168.3 352 158.7 384 145.3C416 132 448 115 480 107.7C512 100.3 544 102.7 576 104C608 105.3 640 105.7 672 95.5C704 85.3 736 64.7 768 74.2C800 83.7 832 123.3 864 124.7C896 126 928 89 960 85.5C992 82 1024 112 1056 114.8C1088 117.7 1120 93.3 1152 88C1184 82.7 1216 96.3 1248 107C1280 117.7 1312 125.3 1344 116.7C1376 108 1408 83 1424 70.5L1440 58L1440 0L1424 0C1408 0 1376 0 1344 0C1312 0 1280 0 1248 0C1216 0 1184 0 1152 0C1120 0 1088 0 1056 0C1024 0 992 0 960 0C928 0 896 0 864 0C832 0 800 0 768 0C736 0 704 0 672 0C640 0 608 0 576 0C544 0 512 0 480 0C448 0 416 0 384 0C352 0 320 0 288 0C256 0 224 0 192 0C160 0 128 0 96 0C64 0 32 0 16 0L0 0Z" fill="#543670"></path><path d="M0 104L16 87.7C32 71.3 64 38.7 96 29C128 19.3 160 32.7 192 34C224 35.3 256 24.7 288 28.3C320 32 352 50 384 57.2C416 64.3 448 60.7 480 73C512 85.3 544 113.7 576 130.5C608 147.3 640 152.7 672 134.7C704 116.7 736 75.3 768 57.5C800 39.7 832 45.3 864 53.8C896 62.3 928 73.7 960 85.5C992 97.3 1024 109.7 1056 116.8C1088 124 1120 126 1152 106.3C1184 86.7 1216 45.3 1248 47.7C1280 50 1312 96 1344 118.7C1376 141.3 1408 140.7 1424 140.3L1440 140L1440 0L1424 0C1408 0 1376 0 1344 0C1312 0 1280 0 1248 0C1216 0 1184 0 1152 0C1120 0 1088 0 1056 0C1024 0 992 0 960 0C928 0 896 0 864 0C832 0 800 0 768 0C736 0 704 0 672 0C640 0 608 0 576 0C544 0 512 0 480 0C448 0 416 0 384 0C352 0 320 0 288 0C256 0 224 0 192 0C160 0 128 0 96 0C64 0 32 0 16 0L0 0Z" fill="#683779"></path><path d="M0 134L16 120.2C32 106.3 64 78.7 96 70.2C128 61.7 160 72.3 192 83C224 93.7 256 104.3 288 107.3C320 110.3 352 105.7 384 107.5C416 109.3 448 117.7 480 110C512 102.3 544 78.7 576 69.8C608 61 640 67 672 78C704 89 736 105 768 98.7C800 92.3 832 63.7 864 51.5C896 39.3 928 43.7 960 55C992 66.3 1024 84.7 1056 96C1088 107.3 1120 111.7 1152 95.8C1184 80 1216 44 1248 39C1280 34 1312 60 1344 66.7C1376 73.3 1408 60.7 1424 54.3L1440 48L1440 0L1424 0C1408 0 1376 0 1344 0C1312 0 1280 0 1248 0C1216 0 1184 0 1152 0C1120 0 1088 0 1056 0C1024 0 992 0 960 0C928 0 896 0 864 0C832 0 800 0 768 0C736 0 704 0 672 0C640 0 608 0 576 0C544 0 512 0 480 0C448 0 416 0 384 0C352 0 320 0 288 0C256 0 224 0 192 0C160 0 128 0 96 0C64 0 32 0 16 0L0 0Z" fill="#7e3680"></path><path d="M0 29L16 25.3C32 21.7 64 14.3 96 27.5C128 40.7 160 74.3 192 82.5C224 90.7 256 73.3 288 69.2C320 65 352 74 384 75.7C416 77.3 448 71.7 480 60.7C512 49.7 544 33.3 576 30.3C608 27.3 640 37.7 672 48.2C704 58.7 736 69.3 768 61.3C800 53.3 832 26.7 864 16.5C896 6.3 928 12.7 960 18.5C992 24.3 1024 29.7 1056 31.2C1088 32.7 1120 30.3 1152 42.8C1184 55.3 1216 82.7 1248 78.2C1280 73.7 1312 37.3 1344 29.2C1376 21 1408 41 1424 51L1440 61L1440 0L1424 0C1408 0 1376 0 1344 0C1312 0 1280 0 1248 0C1216 0 1184 0 1152 0C1120 0 1088 0 1056 0C1024 0 992 0 960 0C928 0 896 0 864 0C832 0 800 0 768 0C736 0 704 0 672 0C640 0 608 0 576 0C544 0 512 0 480 0C448 0 416 0 384 0C352 0 320 0 288 0C256 0 224 0 192 0C160 0 128 0 96 0C64 0 32 0 16 0L0 0Z" fill="#953384"></path><path d="M0 77L16 71.7C32 66.3 64 55.7 96 43C128 30.3 160 15.7 192 21.5C224 27.3 256 53.7 288 59.7C320 65.7 352 51.3 384 43.2C416 35 448 33 480 40.2C512 47.3 544 63.7 576 68.8C608 74 640 68 672 56.2C704 44.3 736 26.7 768 18.7C800 10.7 832 12.3 864 13.2C896 14 928 14 960 16.7C992 19.3 1024 24.7 1056 37.5C1088 50.3 1120 70.7 1152 75.8C1184 81 1216 71 1248 64.5C1280 58 1312 55 1344 57.3C1376 59.7 1408 67.3 1424 71.2L1440 75L1440 0L1424 0C1408 0 1376 0 1344 0C1312 0 1280 0 1248 0C1216 0 1184 0 1152 0C1120 0 1088 0 1056 0C1024 0 992 0 960 0C928 0 896 0 864 0C832 0 800 0 768 0C736 0 704 0 672 0C640 0 608 0 576 0C544 0 512 0 480 0C448 0 416 0 384 0C352 0 320 0 288 0C256 0 224 0 192 0C160 0 128 0 96 0C64 0 32 0 16 0L0 0Z" fill="#ad2d85"></path><path d="M0 48L16 49C32 50 64 52 96 51.8C128 51.7 160 49.3 192 46.7C224 44 256 41 288 43.3C320 45.7 352 53.3 384 52.8C416 52.3 448 43.7 480 40.7C512 37.7 544 40.3 576 37.8C608 35.3 640 27.7 672 21.7C704 15.7 736 11.3 768 13C800 14.7 832 22.3 864 25.2C896 28 928 26 960 27.8C992 29.7 1024 35.3 1056 33.8C1088 32.3 1120 23.7 1152 18.3C1184 13 1216 11 1248 19.3C1280 27.7 1312 46.3 1344 48.2C1376 50 1408 35 1424 27.5L1440 20L1440 0L1424 0C1408 0 1376 0 1344 0C1312 0 1280 0 1248 0C1216 0 1184 0 1152 0C1120 0 1088 0 1056 0C1024 0 992 0 960 0C928 0 896 0 864 0C832 0 800 0 768 0C736 0 704 0 672 0C640 0 608 0 576 0C544 0 512 0 480 0C448 0 416 0 384 0C352 0 320 0 288 0C256 0 224 0 192 0C160 0 128 0 96 0C64 0 32 0 16 0L0 0Z" fill="#c42484"></path><path d="M0 35L16 35.5C32 36 64 37 96 38.7C128 40.3 160 42.7 192 43.7C224 44.7 256 44.3 288 40.2C320 36 352 28 384 26.5C416 25 448 30 480 28.8C512 27.7 544 20.3 576 18.5C608 16.7 640 20.3 672 18.5C704 16.7 736 9.3 768 7.5C800 5.7 832 9.3 864 9.7C896 10 928 7 960 7C992 7 1024 10 1056 15.8C1088 21.7 1120 30.3 1152 28.5C1184 26.7 1216 14.3 1248 13C1280 11.7 1312 21.3 1344 27.5C1376 33.7 1408 36.3 1424 37.7L1440 39L1440 0L1424 0C1408 0 1376 0 1344 0C1312 0 1280 0 1248 0C1216 0 1184 0 1152 0C1120 0 1088 0 1056 0C1024 0 992 0 960 0C928 0 896 0 864 0C832 0 800 0 768 0C736 0 704 0 672 0C640 0 608 0 576 0C544 0 512 0 480 0C448 0 416 0 384 0C352 0 320 0 288 0C256 0 224 0 192 0C160 0 128 0 96 0C64 0 32 0 16 0L0 0Z" fill="#db167f"></path></svg>